<?xml version="1.0" standalone="no"?>
<!DOCTYPE svg PUBLIC "-//W3C//DTD SVG 20010904//EN"
 "http://www.w3.org/TR/2001/REC-SVG-20010904/DTD/svg10.dtd">
<svg version="1.0" xmlns="http://www.w3.org/2000/svg"
 width="64.000000pt" height="64.000000pt" viewBox="0 0 64.000000 64.000000"
 preserveAspectRatio="xMidYMid meet">

<g transform="translate(0.000000,64.000000) scale(0.100000,-0.100000)"
fill="#000000" stroke="none">
<path d="M270 621 c0 -5 9 -11 20 -14 19 -5 20 -14 20 -129 0 -69 3 -128 8
-132 4 -4 7 -24 7 -44 0 -34 2 -37 32 -40 24 -2 33 1 38 17 3 12 3 30 0 41 -6
18 -2 20 50 20 52 0 56 -2 50 -20 -11 -35 3 -60 35 -60 23 0 31 6 36 24 3 14
3 30 -1 37 -4 6 -2 15 4 19 16 9 62 166 55 185 -5 11 -36 15 -147 17 l-142 3
-3 43 c-3 39 -5 42 -33 42 -16 0 -29 -4 -29 -9z m125 -182 c0 -41 -4 -54 -15
-54 -16 0 -27 73 -16 102 13 33 31 5 31 -48z m70 0 c0 -41 -4 -54 -15 -54 -16
0 -27 73 -16 102 13 33 31 5 31 -48z m70 0 c0 -41 -4 -54 -15 -54 -16 0 -27
73 -16 102 13 33 31 5 31 -48z"/>
<path d="M70 491 c-6 -11 -10 -92 -10 -190 0 -168 0 -170 -22 -173 -32 -4 -37
-64 -9 -99 l19 -24 272 0 272 0 19 24 c28 34 23 95 -8 99 -19 3 -22 11 -25 50
-2 34 -7 47 -18 47 -11 0 -16 -13 -18 -47 l-3 -48 -220 0 -219 0 0 175 0 174
82 3 c54 2 83 7 86 16 3 9 -20 12 -92 12 -84 0 -97 -2 -106 -19z m530 -416 c0
-14 -8 -29 -19 -35 -26 -14 -496 -14 -522 0 -11 6 -19 21 -19 35 l0 25 280 0
280 0 0 -25z"/>
<path d="M137 413 c-4 -3 -7 -55 -7 -113 0 -79 4 -111 14 -119 20 -17 328 -11
334 7 3 9 -32 12 -152 12 l-156 0 0 94 0 95 47 3 c26 2 48 9 51 16 3 9 -14 12
-60 12 -36 0 -68 -3 -71 -7z"/>
</g>
</svg>
